<?xml version="1.0" standalone="no"?>
<!DOCTYPE svg PUBLIC "-//W3C//DTD SVG 20010904//EN"
 "http://www.w3.org/TR/2001/REC-SVG-20010904/DTD/svg10.dtd">
<svg version="1.0" xmlns="http://www.w3.org/2000/svg"
 width="522.000000pt" height="311.000000pt" viewBox="0 0 522.000000 311.000000"
 preserveAspectRatio="xMidYMid meet">

<g transform="translate(0.000000,311.000000) scale(0.100000,-0.100000)"
fill="#ffffff" stroke="none">
<path d="M929 2869 c-236 -25 -380 -104 -454 -250 -48 -93 -58 -158 -65 -429
-5 -166 -12 -267 -20 -290 -34 -94 -111 -144 -238 -156 l-72 -7 0 -202 0 -202
71 -7 c78 -7 156 -36 188 -69 11 -12 30 -45 43 -72 20 -46 23 -70 29 -315 6
-218 10 -277 26 -331 22 -76 60 -145 109 -199 41 -45 147 -103 229 -124 66
-17 237 -36 321 -36 l54 0 0 169 0 168 -62 6 c-93 9 -138 25 -174 61 -55 55
-65 109 -73 401 -6 243 -8 264 -30 312 -42 94 -134 160 -277 199 -55 14 -64
20 -64 39 0 19 8 25 53 35 132 32 245 109 289 198 21 44 23 64 29 307 8 281
17 337 64 393 32 39 93 62 177 69 l68 6 0 168 0 169 -72 -1 c-40 -1 -107 -5
-149 -10z"/>
<path d="M3900 2711 l0 -168 72 -7 c121 -11 184 -53 218 -146 9 -23 15 -124
20 -300 8 -308 13 -332 91 -410 54 -54 127 -92 224 -118 53 -14 65 -20 65 -37
0 -17 -12 -24 -69 -38 -140 -36 -232 -101 -278 -195 -28 -57 -28 -57 -34 -322
-5 -214 -9 -274 -23 -310 -32 -86 -92 -124 -216 -138 l-65 -7 -3 -167 -2 -168
60 0 c85 0 244 18 315 36 143 36 252 119 308 234 43 87 57 188 57 398 0 278
21 366 101 419 42 28 132 53 192 53 l37 0 0 205 0 205 -35 0 c-94 0 -196 40
-235 92 -46 63 -52 99 -60 378 -6 187 -12 280 -23 317 -50 174 -162 281 -342
327 -71 18 -230 36 -315 36 l-60 0 0 -169z"/>
<path d="M2090 2426 c0 -223 -4 -407 -8 -410 -4 -2 -21 19 -37 47 -42 76 -133
162 -207 197 -235 110 -546 32 -712 -180 -141 -179 -204 -444 -177 -738 19
-201 74 -354 175 -488 131 -174 375 -266 597 -224 126 24 259 118 321 227 17
29 34 53 39 53 5 0 9 -58 9 -130 l0 -130 225 0 225 0 1 223 c0 213 1 220 15
167 37 -141 135 -275 250 -341 110 -62 276 -84 417 -54 137 29 271 128 332
247 17 32 33 58 38 58 4 0 7 -67 7 -150 l0 -150 215 0 215 0 0 820 0 820 -225
0 -224 0 -3 -522 c-3 -522 -3 -523 -26 -574 -56 -124 -197 -197 -335 -174 -73
12 -106 30 -156 86 -71 81 -71 81 -71 666 l0 518 -225 0 -225 0 0 270 0 270
-225 0 -225 0 0 -404z m-252 -489 c101 -27 178 -107 223 -232 30 -83 38 -319
15 -418 -30 -129 -103 -234 -194 -278 -38 -18 -64 -23 -132 -23 -103 0 -158
23 -220 90 -89 97 -125 228 -117 428 8 206 54 311 180 406 48 36 161 48 245
27z"/>
</g>
</svg>
