<?xml version="1.0" standalone="no"?>
<!DOCTYPE svg PUBLIC "-//W3C//DTD SVG 20010904//EN"
 "http://www.w3.org/TR/2001/REC-SVG-20010904/DTD/svg10.dtd">
<svg version="1.0" xmlns="http://www.w3.org/2000/svg"
 width="1392.000000pt" height="1392.000000pt" viewBox="0 0 1392.000000 1392.000000"
 preserveAspectRatio="xMidYMid meet">
<metadata>
Created by potrace 1.14, written by Peter Selinger 2001-2017
</metadata>
<g transform="translate(0.000000,1392.000000) scale(0.100000,-0.100000)"
fill="#000000" stroke="none">
<path d="M2796 10482 c-2 -1 -54 -4 -117 -7 -63 -3 -125 -8 -139 -10 -14 -2
-52 -7 -85 -11 -94 -11 -157 -20 -203 -29 -15 -4 -38 -8 -52 -10 -32 -5 -52
-9 -125 -30 -33 -9 -73 -20 -90 -24 -16 -5 -46 -15 -65 -23 -19 -8 -37 -15
-40 -16 -36 -6 -195 -87 -252 -127 -26 -19 -50 -35 -52 -35 -12 0 -135 -116
-176 -166 -113 -137 -225 -370 -245 -510 -4 -22 -8 -46 -10 -54 -4 -15 -11
-62 -20 -145 -3 -22 -7 -78 -10 -125 -2 -47 -7 -125 -10 -175 -3 -49 -8 -173
-11 -275 -3 -102 -7 -234 -9 -295 -7 -204 -19 -384 -31 -455 -3 -19 -7 -46 -8
-60 -5 -33 -64 -160 -76 -160 -5 0 -11 -8 -14 -18 -5 -16 -37 -50 -94 -103
-95 -87 -270 -144 -507 -165 -38 -3 -82 -7 -96 -9 -15 -1 -31 -5 -36 -8 -6 -4
-9 -213 -9 -538 l1 -532 23 -8 c14 -5 22 -5 22 2 0 6 5 7 10 4 13 -8 36 -12
122 -20 65 -6 91 -10 143 -20 67 -13 79 -17 89 -23 6 -3 20 -8 31 -9 25 -4 43
-11 129 -53 61 -30 121 -78 151 -121 10 -15 13 -20 58 -102 76 -135 85 -211
101 -832 14 -513 25 -704 47 -830 14 -76 13 -73 21 -95 3 -8 18 -53 33 -100
16 -47 35 -93 43 -102 8 -10 12 -18 8 -18 -7 0 20 -54 41 -80 6 -8 12 -19 14
-25 2 -14 92 -147 115 -171 6 -7 21 -25 35 -41 13 -15 44 -44 69 -63 24 -19
53 -43 64 -52 11 -10 26 -18 33 -18 7 0 13 -3 13 -7 0 -5 10 -13 23 -19 12 -6
65 -33 117 -60 102 -52 121 -61 215 -93 85 -29 210 -55 310 -66 22 -2 40 -4
40 -5 0 -3 36 -8 90 -13 28 -3 76 -8 109 -12 97 -12 123 -13 332 -21 l200 -7
0 450 c0 312 -3 450 -10 451 -6 1 -36 4 -66 7 -143 14 -185 20 -285 39 -114
22 -195 64 -271 140 -101 101 -137 203 -159 441 -3 28 -7 73 -10 100 -10 99
-21 412 -28 792 -1 84 -4 153 -7 153 -3 0 -6 39 -7 88 -1 79 -11 159 -28 236
-10 47 -64 153 -110 214 -87 119 -205 212 -365 290 -52 25 -97 46 -100 45 -3
-1 -14 4 -25 10 -11 6 -24 10 -29 9 -4 -2 -13 1 -20 6 -6 5 -64 24 -129 42
-122 34 -169 62 -162 96 2 11 4 26 4 35 1 13 66 52 91 55 19 2 83 18 125 32
28 9 52 16 55 17 11 1 79 29 148 61 40 19 75 34 78 34 3 0 10 4 17 10 17 14
118 80 123 80 6 0 29 21 104 93 70 66 102 103 119 135 6 11 17 26 24 34 10 10
47 92 52 118 1 3 5 16 8 30 16 64 27 210 31 446 2 72 6 136 10 142 3 6 2 13
-4 17 -6 4 -7 11 -4 17 4 6 8 74 10 152 4 214 19 510 29 581 2 17 7 53 10 80
4 28 11 68 17 90 6 22 11 45 12 50 4 23 42 105 49 105 4 0 7 6 7 13 0 7 16 31
35 53 19 21 35 42 35 45 0 3 16 14 35 25 19 10 35 21 35 25 0 12 176 73 240
83 19 3 46 8 58 10 13 3 60 8 105 11 45 3 91 8 102 10 11 2 27 4 36 4 14 1 16
47 15 449 l0 448 -134 0 c-73 -1 -135 -2 -136 -4z"/>
<path d="M10397 10476 c-2 -6 -1 -20 3 -31 4 -11 4 -27 -1 -36 -4 -8 -4 -21 1
-29 5 -8 5 -21 -1 -31 -5 -11 -5 -20 0 -24 6 -3 6 -17 1 -35 -5 -17 -5 -30 0
-30 5 0 5 -13 0 -30 -5 -17 -5 -30 0 -30 5 0 5 -13 0 -30 -5 -16 -5 -30 0 -30
4 0 4 -15 0 -34 -4 -19 -4 -40 1 -47 4 -7 3 -21 -2 -30 -5 -11 -5 -20 0 -24 6
-3 6 -17 1 -35 -5 -17 -5 -30 0 -30 5 0 5 -13 0 -30 -5 -17 -5 -30 0 -30 5 0
5 -13 0 -30 -5 -16 -5 -30 0 -30 4 0 4 -15 0 -34 -4 -19 -4 -40 1 -47 4 -7 4
-18 -1 -24 -5 -6 -5 -17 0 -25 4 -7 4 -23 0 -36 -5 -12 -6 -25 -2 -29 4 -3 7
-14 7 -22 0 -11 10 -17 30 -18 17 -1 62 -5 100 -9 39 -4 88 -9 111 -11 22 -2
52 -8 66 -14 14 -5 28 -7 31 -4 7 6 156 -45 177 -61 8 -7 28 -18 44 -26 35
-18 136 -119 136 -137 0 -7 4 -13 8 -13 10 0 60 -106 67 -139 2 -13 6 -30 9
-39 5 -17 13 -99 21 -213 5 -72 12 -259 20 -519 11 -329 14 -425 20 -505 8
-118 13 -166 29 -270 20 -125 70 -211 195 -333 155 -151 312 -234 611 -322
106 -31 127 -40 143 -58 16 -19 17 -48 2 -73 -9 -14 -72 -42 -125 -54 -161
-39 -410 -135 -450 -175 -3 -3 -30 -22 -60 -42 -83 -57 -119 -92 -210 -204
-22 -27 -92 -154 -85 -154 3 0 -1 -10 -9 -22 -8 -13 -17 -35 -20 -51 -2 -15
-7 -35 -10 -45 -12 -40 -22 -239 -31 -620 -12 -542 -21 -712 -40 -812 -3 -14
-7 -35 -9 -46 -12 -62 -76 -178 -129 -236 -51 -55 -194 -129 -277 -144 -14 -3
-41 -9 -60 -14 -19 -5 -57 -12 -85 -14 -27 -3 -72 -8 -100 -11 -27 -3 -63 -7
-80 -9 -29 -3 -30 -5 -32 -57 -1 -39 -12 -568 -13 -684 -1 -5 1 -32 3 -58 1
-27 0 -50 -4 -53 -4 -2 -5 -13 -2 -25 6 -21 9 -21 197 -16 190 6 289 12 356
22 19 2 55 7 80 10 112 13 212 28 295 44 77 16 88 18 115 29 14 5 28 10 32 11
54 10 68 15 68 20 0 4 9 7 20 8 30 3 197 87 283 144 43 28 115 88 160 133 78
76 177 203 177 224 0 6 3 12 8 14 11 5 71 132 78 168 2 8 7 23 12 35 24 53 55
196 68 310 3 33 8 74 10 90 7 56 14 279 19 590 5 371 9 436 31 595 10 69 35
166 56 220 20 53 94 170 107 170 3 0 20 13 37 28 18 15 49 36 70 47 22 11 42
25 46 30 4 6 8 7 8 3 0 -4 21 2 46 12 25 11 55 22 67 24 12 2 34 9 50 15 15 6
27 8 27 5 0 -2 8 0 18 5 23 12 95 21 211 26 52 2 97 9 100 14 7 11 7 1069 0
1076 -3 3 -53 7 -110 10 -132 6 -158 9 -261 39 -113 33 -235 96 -296 154 -45
43 -130 162 -116 162 4 0 2 6 -3 13 -15 18 -39 99 -39 127 1 14 -2 27 -6 30
-4 3 -9 37 -12 75 -3 39 -8 93 -10 120 -8 93 -27 576 -30 762 -1 40 -4 73 -8
73 -4 0 -3 13 2 29 4 16 6 32 4 34 -3 3 -7 42 -9 88 -6 108 -17 234 -30 324
-16 115 -100 316 -189 449 -114 172 -298 319 -516 414 -36 16 -171 61 -202 68
-5 1 -9 2 -10 4 -2 1 -12 3 -23 5 -11 2 -54 10 -95 18 -41 9 -93 18 -115 21
-22 3 -58 8 -80 11 -39 6 -56 8 -180 20 -134 13 -187 16 -347 19 -114 2 -168
-1 -171 -8z"/>
<path d="M5576 10340 c-2 -8 -4 -384 -4 -835 -1 -830 -6 -1218 -17 -1234 -3
-5 -1 -13 5 -16 7 -4 8 -11 1 -18 -10 -13 -11 -17 -11 -44 0 -22 -29 12 -88
105 -162 254 -361 442 -573 540 -66 31 -172 70 -209 77 -12 2 -29 6 -38 9 -30
9 -115 25 -177 32 -22 3 -94 6 -160 7 -104 1 -157 -2 -285 -18 -118 -14 -346
-88 -490 -161 -57 -28 -241 -143 -250 -155 -3 -4 -23 -22 -45 -39 -54 -43
-132 -118 -177 -171 -21 -24 -47 -55 -59 -69 -11 -14 -35 -45 -52 -70 -17 -25
-35 -48 -40 -51 -5 -3 -9 -10 -9 -15 -1 -5 -12 -27 -26 -49 -24 -37 -142 -264
-144 -275 -1 -8 -18 -53 -28 -75 -8 -19 -23 -64 -25 -75 0 -3 -4 -11 -8 -17
-5 -7 -10 -21 -12 -30 -2 -10 -15 -56 -29 -103 -23 -79 -34 -125 -41 -175 -2
-11 -4 -20 -5 -20 -2 0 -7 -25 -14 -75 -4 -25 -9 -52 -12 -61 -2 -9 -7 -36 -9
-59 -2 -24 -7 -59 -9 -79 -21 -154 -26 -721 -6 -721 3 0 5 -15 5 -32 1 -87 38
-311 80 -478 22 -89 93 -300 111 -327 8 -13 12 -23 9 -23 -12 0 117 -239 177
-329 35 -52 68 -101 73 -109 22 -33 64 -80 140 -157 100 -101 132 -128 225
-190 41 -27 77 -52 80 -55 11 -11 263 -130 285 -134 6 -2 48 -14 95 -28 179
-55 298 -72 495 -72 164 1 269 14 377 47 26 8 49 12 52 9 4 -3 6 -1 6 4 0 5
10 10 22 11 11 1 24 6 27 10 3 4 15 10 26 11 11 2 22 8 23 13 2 5 10 9 17 9
13 0 75 30 85 41 3 3 12 8 21 11 13 5 60 35 147 93 93 63 238 218 320 345 41
63 85 127 98 142 19 24 23 25 29 10 10 -26 16 -161 18 -433 l2 -247 585 0
c322 0 592 2 600 4 13 3 15 67 16 486 1 266 3 513 5 551 3 69 14 87 25 40 3
-16 10 -43 16 -61 5 -18 11 -39 12 -45 1 -7 10 -29 19 -51 9 -21 17 -42 17
-47 0 -24 101 -217 162 -309 103 -157 297 -350 417 -416 110 -60 157 -84 169
-84 7 0 20 -4 30 -10 22 -12 170 -60 180 -58 4 1 25 -3 47 -9 118 -33 381 -47
545 -29 41 4 89 9 105 11 17 1 37 5 45 8 8 3 47 13 85 23 39 10 72 19 75 20 3
1 15 5 28 9 13 4 54 22 92 40 37 19 71 31 74 28 3 -4 6 -2 6 4 0 5 18 18 40
28 22 10 40 22 40 27 0 4 5 8 10 8 25 0 280 205 280 225 0 2 16 20 35 41 20
21 54 65 75 98 22 34 43 66 47 71 5 6 17 28 28 50 37 75 86 146 96 139 6 -3 8
-12 5 -20 -3 -8 -2 -14 2 -14 4 0 7 -50 7 -111 0 -61 3 -116 6 -121 4 -6 3
-24 -1 -39 -5 -16 -5 -31 0 -34 5 -3 6 -15 1 -28 -5 -12 -5 -32 0 -45 5 -12 5
-22 1 -22 -4 0 -7 -13 -7 -30 0 -16 2 -30 5 -30 7 0 3 -81 -4 -87 -3 -3 -1
-14 4 -24 7 -12 7 -20 0 -24 -7 -4 -7 -12 0 -25 6 -12 7 -21 0 -25 -6 -4 -6
-15 0 -30 5 -14 6 -25 1 -25 -4 0 -6 -13 -3 -29 l4 -28 571 1 572 1 1 2183 c0
1965 -2 2182 -15 2183 -9 1 -278 2 -599 3 -576 1 -582 1 -582 -19 0 -11 -3
-375 -5 -810 -6 -948 -14 -1748 -20 -1830 -11 -152 -22 -199 -67 -289 -60
-120 -137 -207 -254 -292 -49 -35 -157 -93 -184 -100 -3 0 -12 -4 -20 -7 -40
-17 -131 -37 -185 -42 -94 -9 -156 -11 -161 -6 -3 3 -24 6 -47 7 -50 2 -156
28 -212 51 -101 42 -225 155 -311 283 -27 41 -57 101 -56 114 1 3 -4 20 -9 38
-6 18 -12 49 -14 68 -2 19 -7 55 -10 80 -3 25 -7 98 -10 164 -2 65 -7 121 -9
124 -3 2 -1 13 4 23 6 10 7 20 3 22 -5 3 -8 548 -8 1211 0 795 -3 1207 -10
1209 -5 1 -274 2 -598 2 -520 -1 -587 1 -591 15 -2 8 -3 327 -2 708 0 382 -2
699 -6 705 -5 8 -176 11 -597 12 -518 0 -592 -2 -595 -15z m-799 -2346 c267
-27 493 -187 633 -449 18 -33 35 -64 38 -70 4 -5 7 -14 8 -20 1 -5 14 -37 28
-71 14 -33 27 -74 30 -90 2 -16 5 -29 6 -29 1 0 4 -13 6 -30 3 -16 9 -52 14
-80 18 -94 24 -220 24 -470 -1 -343 -8 -401 -69 -579 -34 -101 -123 -289 -144
-306 -4 -3 -30 -34 -58 -70 -141 -179 -307 -275 -493 -286 -36 -3 -82 -6 -103
-7 -21 -1 -41 1 -43 5 -2 3 -17 4 -32 1 -32 -6 -33 -6 -92 1 -46 6 -61 9 -115
21 -160 36 -337 182 -454 374 -58 94 -87 156 -113 236 -18 57 -39 141 -43 172
-2 11 -6 30 -10 42 -3 12 -8 41 -9 65 -2 24 -5 47 -8 52 -2 5 -4 33 -3 61 0
29 -2 53 -5 53 -6 0 -4 336 3 410 3 30 8 80 12 110 6 52 10 77 20 145 4 25 17
81 39 165 20 78 107 248 163 318 46 59 158 170 209 208 21 16 41 31 44 35 5 5
25 14 45 19 6 1 19 9 30 16 11 8 30 14 42 14 13 0 23 4 23 8 0 4 10 8 23 9 12
0 36 4 52 7 17 4 75 9 129 12 55 2 101 6 104 9 3 2 9 2 13 -1 5 -2 30 -7 56
-10z"/>
</g>
</svg>
