<?xml version="1.0" encoding="utf-8"?>
<svg width="800" height="800" viewBox="0 0 800 800" fill="none" xmlns="http://www.w3.org/2000/svg">
  <g>
    <path d="M152.563 387C137.174 387 123.009 386.019 110.068 384.058C97.1969 382.167 86.0047 378.314 76.4914 372.499C67.048 366.685 59.7381 358.104 54.5618 346.755C49.3854 335.407 46.7972 320.311 46.7972 301.467L46.7972 267.527C46.7972 251.835 43.3696 240.487 36.5144 233.482C29.7292 226.407 17.5577 222.869 0 222.869L0 164.236C17.5577 164.236 29.7292 160.733 36.5144 153.728C43.3696 146.653 46.7972 135.27 46.7972 119.578L46.7972 85.7431C46.7972 66.8993 49.3854 51.8032 54.5618 40.4548C59.7381 29.1064 67.048 20.5251 76.4914 14.7108C86.0047 8.89655 97.1969 5.0437 110.068 3.15231C123.009 1.19086 137.174 0.210144 152.563 0.210144L152.563 48.7559C134.446 48.7559 122.659 52.3285 117.203 59.4738C111.817 66.549 109.124 77.5121 109.124 92.363L109.124 137.021C109.124 144.867 107.655 152.292 104.717 159.297C101.849 166.232 96.4974 172.397 88.6629 177.791C80.8283 183.185 69.5313 187.423 54.7716 190.505L54.7716 196.6C69.5313 199.682 80.8283 203.92 88.6629 209.314C96.4974 214.708 101.849 220.908 104.717 227.913C107.655 234.918 109.124 242.344 109.124 250.189L109.124 294.847C109.124 309.628 111.817 320.556 117.203 327.631C122.659 334.707 134.446 338.244 152.563 338.244L152.563 387L152.563 387ZM218.447 322.798C200.609 322.798 184.52 318.209 170.18 309.033C155.84 299.786 144.438 286.196 135.974 268.263C127.51 250.259 123.278 228.158 123.278 201.959C123.278 175.059 127.615 152.677 136.289 134.814C145.033 116.881 156.61 103.466 171.02 94.5696C185.43 85.6731 201.169 81.2248 218.237 81.2248C231.388 81.2248 242.335 83.4314 251.079 87.8447C259.893 92.2579 267.028 97.722 272.484 104.237C277.94 110.752 282.102 117.231 284.97 123.676L286.964 123.676L286.964 5.98941L351.808 5.98941L351.808 319.015L287.698 319.015L287.698 281.397L284.97 281.397C282.032 287.912 277.765 294.357 272.169 300.731C266.573 307.106 259.368 312.395 250.554 316.598C241.74 320.731 231.038 322.798 218.447 322.798L218.447 322.798ZM239.012 270.995C254.681 270.995 266.818 264.655 275.422 251.976C284.026 239.296 288.328 222.519 288.328 201.644C288.328 180.628 284.026 163.956 275.422 151.627C266.888 139.228 254.751 133.028 239.012 133.028C222.923 133.028 210.682 139.368 202.288 152.047C193.894 164.726 189.697 181.258 189.697 201.644C189.697 222.099 193.929 238.771 202.393 251.66C210.857 264.55 223.063 270.995 239.012 270.995L239.012 270.995ZM500.946 219.086L500.946 84.2721L566 84.2721L566 319.015L503.569 319.015L503.569 276.354L501.051 276.354C495.804 290.154 487.026 301.222 474.714 309.558C462.473 317.894 447.573 322.062 430.016 322.062C406.372 322.062 387.241 314.216 372.621 298.525C358.071 282.763 350.726 261.152 350.586 233.692L350.586 84.2721L415.641 84.2721L415.641 222.134C415.711 236.004 419.418 246.967 426.763 255.023C434.108 263.009 443.936 267.002 456.247 267.002C467.929 267.002 478.317 262.939 487.41 254.813C496.504 246.687 501.016 234.778 500.946 219.086L500.946 219.086ZM547.437 0C562.896 0 577.061 0.980713 589.932 2.94217C602.803 4.90363 613.96 8.79147 623.404 14.6057C632.847 20.35 640.157 28.9313 645.333 40.3497C650.579 51.6981 653.203 66.7942 653.203 85.6381L653.203 119.578C653.203 135.27 656.63 146.653 663.485 153.728C670.341 160.733 682.512 164.236 700 164.236L700 222.869C682.512 222.869 670.341 226.407 663.485 233.482C656.63 240.487 653.203 251.835 653.203 267.527L653.203 301.257C653.203 320.101 650.579 335.197 645.333 346.545C640.157 357.964 632.847 366.58 623.404 372.394C613.96 378.208 602.803 382.061 589.932 383.953C577.061 385.914 562.896 386.895 547.437 386.895L547.437 338.244C565.484 338.244 577.236 334.672 582.692 327.526C588.148 320.451 590.876 309.523 590.876 294.742L590.876 250.084C590.876 242.238 592.31 234.848 595.178 227.913C598.116 220.908 603.502 214.708 611.337 209.314C619.172 203.92 630.469 199.682 645.228 196.6L645.228 190.505C630.469 187.423 619.172 183.185 611.337 177.791C603.502 172.397 598.116 166.197 595.178 159.192C592.31 152.117 590.876 144.657 590.876 136.811L590.876 92.1529C590.876 77.442 588.148 66.549 582.692 59.4738C577.236 52.3285 565.484 48.7559 547.437 48.7559L547.437 0L547.437 0Z" fill="#000000" transform="translate(50 206)" />
  </g>
</svg>